<svg width="1069" height="500" viewBox="0 0 1069 500" fill="none" xmlns="http://www.w3.org/2000/svg">
<rect width="500" height="500" rx="250" fill="url(#paint0_linear_18_2)"/>
<path d="M191 57C221.699 83.8561 270.816 160.829 221.699 253.869C172.581 346.91 236.1 418.723 274 443" stroke="black" stroke-width="20"/>
<path d="M233 57C263.699 83.8561 312.816 160.829 263.699 253.869C214.581 346.91 278.1 418.723 316 443" stroke="black" stroke-width="20"/>
<path d="M623.4 299.98C616.587 299.98 610.427 298.813 604.92 296.48C599.507 294.147 595.213 290.787 592.04 286.4C588.867 282.013 587.233 276.833 587.14 270.86H608.14C608.42 274.873 609.82 278.047 612.34 280.38C614.953 282.713 618.5 283.88 622.98 283.88C627.553 283.88 631.147 282.807 633.76 280.66C636.373 278.42 637.68 275.527 637.68 271.98C637.68 269.087 636.793 266.707 635.02 264.84C633.247 262.973 631.007 261.527 628.3 260.5C625.687 259.38 622.047 258.167 617.38 256.86C611.033 254.993 605.853 253.173 601.84 251.4C597.92 249.533 594.513 246.78 591.62 243.14C588.82 239.407 587.42 234.46 587.42 228.3C587.42 222.513 588.867 217.473 591.76 213.18C594.653 208.887 598.713 205.62 603.94 203.38C609.167 201.047 615.14 199.88 621.86 199.88C631.94 199.88 640.107 202.353 646.36 207.3C652.707 212.153 656.207 218.967 656.86 227.74H635.3C635.113 224.38 633.667 221.627 630.96 219.48C628.347 217.24 624.847 216.12 620.46 216.12C616.633 216.12 613.553 217.1 611.22 219.06C608.98 221.02 607.86 223.867 607.86 227.6C607.86 230.213 608.7 232.407 610.38 234.18C612.153 235.86 614.3 237.26 616.82 238.38C619.433 239.407 623.073 240.62 627.74 242.02C634.087 243.887 639.267 245.753 643.28 247.62C647.293 249.487 650.747 252.287 653.64 256.02C656.533 259.753 657.98 264.653 657.98 270.72C657.98 275.947 656.627 280.8 653.92 285.28C651.213 289.76 647.247 293.353 642.02 296.06C636.793 298.673 630.587 299.98 623.4 299.98ZM717.813 300.26C710.346 300.26 703.626 298.627 697.653 295.36C691.679 292 686.966 287.287 683.513 281.22C680.153 275.153 678.473 268.153 678.473 260.22C678.473 252.287 680.199 245.287 683.653 239.22C687.199 233.153 692.006 228.487 698.073 225.22C704.139 221.86 710.906 220.18 718.373 220.18C725.839 220.18 732.606 221.86 738.673 225.22C744.739 228.487 749.499 233.153 752.953 239.22C756.499 245.287 758.273 252.287 758.273 260.22C758.273 268.153 756.453 275.153 752.813 281.22C749.266 287.287 744.413 292 738.253 295.36C732.186 298.627 725.373 300.26 717.813 300.26ZM717.813 283.18C721.359 283.18 724.673 282.34 727.753 280.66C730.926 278.887 733.446 276.273 735.313 272.82C737.179 269.367 738.113 265.167 738.113 260.22C738.113 252.847 736.153 247.2 732.233 243.28C728.406 239.267 723.693 237.26 718.093 237.26C712.493 237.26 707.779 239.267 703.953 243.28C700.219 247.2 698.353 252.847 698.353 260.22C698.353 267.593 700.173 273.287 703.813 277.3C707.546 281.22 712.213 283.18 717.813 283.18ZM824.03 220.32C833.27 220.32 840.737 223.26 846.43 229.14C852.123 234.927 854.97 243.047 854.97 253.5V299H835.37V256.16C835.37 250 833.83 245.287 830.75 242.02C827.67 238.66 823.47 236.98 818.15 236.98C812.737 236.98 808.443 238.66 805.27 242.02C802.19 245.287 800.65 250 800.65 256.16V299H781.05V221.44H800.65V231.1C803.263 227.74 806.577 225.127 810.59 223.26C814.697 221.3 819.177 220.32 824.03 220.32ZM924.988 220.32C934.228 220.32 941.695 223.26 947.388 229.14C953.082 234.927 955.928 243.047 955.928 253.5V299H936.328V256.16C936.328 250 934.788 245.287 931.708 242.02C928.628 238.66 924.428 236.98 919.108 236.98C913.695 236.98 909.402 238.66 906.228 242.02C903.148 245.287 901.608 250 901.608 256.16V299H882.008V221.44H901.608V231.1C904.222 227.74 907.535 225.127 911.548 223.26C915.655 221.3 920.135 220.32 924.988 220.32ZM977.927 259.94C977.927 252.1 979.467 245.147 982.547 239.08C985.72 233.013 989.967 228.347 995.287 225.08C1000.7 221.813 1006.72 220.18 1013.35 220.18C1019.13 220.18 1024.17 221.347 1028.47 223.68C1032.85 226.013 1036.35 228.953 1038.97 232.5V221.44H1058.71V299H1038.97V287.66C1036.45 291.3 1032.95 294.333 1028.47 296.76C1024.08 299.093 1018.99 300.26 1013.21 300.26C1006.67 300.26 1000.7 298.58 995.287 295.22C989.967 291.86 985.72 287.147 982.547 281.08C979.467 274.92 977.927 267.873 977.927 259.94ZM1038.97 260.22C1038.97 255.46 1038.03 251.4 1036.17 248.04C1034.3 244.587 1031.78 241.973 1028.61 240.2C1025.43 238.333 1022.03 237.4 1018.39 237.4C1014.75 237.4 1011.39 238.287 1008.31 240.06C1005.23 241.833 1002.71 244.447 1000.75 247.9C998.88 251.26 997.947 255.273 997.947 259.94C997.947 264.607 998.88 268.713 1000.75 272.26C1002.71 275.713 1005.23 278.373 1008.31 280.24C1011.48 282.107 1014.84 283.04 1018.39 283.04C1022.03 283.04 1025.43 282.153 1028.61 280.38C1031.78 278.513 1034.3 275.9 1036.17 272.54C1038.03 269.087 1038.97 264.98 1038.97 260.22Z" fill="url(#paint1_linear_18_2)"/>
<defs>
<linearGradient id="paint0_linear_18_2" x1="50" y1="93" x2="447.5" y2="428" gradientUnits="userSpaceOnUse">
<stop stop-color="#6E44FF"/>
<stop offset="1" stop-color="#FF44A8"/>
</linearGradient>
<linearGradient id="paint1_linear_18_2" x1="580" y1="250" x2="1069" y2="250" gradientUnits="userSpaceOnUse">
<stop stop-color="#6E44FF"/>
<stop offset="1" stop-color="#FF44A8"/>
</linearGradient>
</defs>
</svg>
